<svg id="Layer_1" data-name="Layer 1" xmlns="http://www.w3.org/2000/svg" viewBox="0 0 490 215"><title>Artboard 34-work</title><path d="M37.78,54.87V83.3H25.88V33.07H39L49.09,56.51l9.3-23.44H72.08V83.3H59.88V54.35L51.4,74.29H46.34Z"/><path d="M115.18,83.3H102.23V70.8H90.85V83.3H77.9V38.95a5.58,5.58,0,0,1,5.88-5.88H109.3a5.58,5.58,0,0,1,5.88,5.88ZM102.23,59.93V44.83c0-.89-.74-1.49-1.79-1.49h-8a1.51,1.51,0,0,0-1.56,1.49v15.1Z"/><path d="M121,72.43h18.82c.52,0,.82-.3.82-.67V64.47c0-.37-.3-.67-.82-.67H126.87A5.59,5.59,0,0,1,121,57.92v-19a5.59,5.59,0,0,1,5.88-5.88h26V43.86H134.68a.76.76,0,0,0-.74.82V52a.74.74,0,0,0,.74.67h12.95a5.58,5.58,0,0,1,5.88,5.88V77.42a5.58,5.58,0,0,1-5.88,5.88H121Z"/><path d="M195,33.07V43.93H183.65V83.3H170.71V43.93H159.32V33.07Z"/><path d="M200.85,33.07h32.81V43.86H213.72v8.78H231V63.35H213.72v9.08h19.94V83.3H200.85Z"/><path d="M271,33.07a5.65,5.65,0,0,1,5.65,5.65v23A5.75,5.75,0,0,1,271,67.37h-.37l6.18,15.92H264.18l-6.25-15.92h-5.51V83.3H239.48V33.07ZM263.81,44.6a.8.8,0,0,0-.67-.74H252.43V57.25h10.71a.79.79,0,0,0,.67-.67Z"/><path d="M95.79,183.73H90.91l-1.79,8.87H85.94l4.42-22H98c3.89,0,5.78,2.5,5.78,5.56C103.76,180.21,100.89,183.73,95.79,183.73Zm1.73-10.32H93L91.47,181h4.45a4.46,4.46,0,0,0,4.66-4.54A2.74,2.74,0,0,0,97.52,173.42Z"/><path d="M121.62,181.6c-.86,4.6-1.42,6.83-3.3,8.71a8.74,8.74,0,0,1-6.06,2.47c-3.86,0-6.36-2.63-6.36-6.09a30.05,30.05,0,0,1,.71-5.1c.87-4.6,1.42-6.83,3.31-8.71a8.74,8.74,0,0,1,6.05-2.47c3.86,0,6.36,2.63,6.36,6.09A30.06,30.06,0,0,1,121.62,181.6Zm-5.84-8.4a5,5,0,0,0-3.64,1.61c-1,1-1.51,2.44-2.35,6.8a29.43,29.43,0,0,0-.71,4.88,3.32,3.32,0,0,0,3.37,3.52,5,5,0,0,0,3.64-1.61c1-1,1.51-2.44,2.35-6.8a28.46,28.46,0,0,0,.68-4.88A3.29,3.29,0,0,0,115.78,173.2Z"/><path d="M142,181.42c-1,5.28-1.7,7.29-3.64,9.11a8.44,8.44,0,0,1-5.9,2.07h-7.57l4.42-22h7c3.34,0,6.33,1.61,6.33,6.05A24.19,24.19,0,0,1,142,181.42Zm-6.24-8H132l-3.27,16.43h3.77a5.44,5.44,0,0,0,3.83-1.39c1.11-1,1.76-2.72,2.56-7a25.73,25.73,0,0,0,.65-4.51C139.5,174.68,138.27,173.39,135.8,173.39Z"/><path d="M159.24,177.06c0-2.25-1.17-3.86-3.43-3.86a4.91,4.91,0,0,0-3.61,1.58c-1.08,1.08-1.61,2.75-2.38,6.83a29.35,29.35,0,0,0-.71,4.91,3.33,3.33,0,0,0,3.52,3.49,5.4,5.4,0,0,0,5-3.86h3.27c-1.39,4.32-4.6,6.64-8.4,6.64s-6.55-2.47-6.55-6.09a29.73,29.73,0,0,1,.71-5.1c.86-4.6,1.39-6.8,3.3-8.71a8.49,8.49,0,0,1,6-2.47c4.36,0,6.46,2.87,6.49,6.64Z"/><path d="M176.66,192.6l-.56-4.51h-8.28l-2.38,4.51H162l12-22h2.56l3.27,22Zm-2.16-17.24-5.34,10.1h6.67Z"/><path d="M197.73,175a4.93,4.93,0,0,0-4.17-1.79c-3,0-4.73,2.07-4.73,4.11,0,1.54,1.24,2.22,2.75,2.59l1.92.46c3.49.83,4.88,2.44,4.88,5.53,0,4.63-4,6.92-8.53,6.92-3.27,0-5.31-.86-7.14-3l2.35-2a6,6,0,0,0,5.07,2.26c2.84,0,5.07-1.64,5.07-3.89,0-1.92-1.14-2.53-2.72-2.9l-1.95-.46c-2.9-.68-4.88-2.38-4.88-5.1,0-3.64,2.78-7.2,8.28-7.2a7.37,7.37,0,0,1,6,2.59Z"/><path d="M218.36,173.42h-5.68l-3.86,19.18h-3.18l3.86-19.18h-5.81l.59-2.81h14.64Z"/><path d="M58.16,108.57a4.14,4.14,0,0,1,4.36,4.36v28.55a4.14,4.14,0,0,1-4.36,4.36H39a4.14,4.14,0,0,1-4.36-4.36V112.93A4.14,4.14,0,0,1,39,108.57Zm-5.25,8.67a.61.61,0,0,0-.61-.61H44.74a.61.61,0,0,0-.5.61v20a.53.53,0,0,0,.5.5H52.3a.56.56,0,0,0,.61-.5Z"/><path d="M68.64,108.57H92.28v8H78.2V125H90.34v8H78.2v12.87H68.64Z"/><path d="M235.37,95.44h41.51v13.65H251.65v11.11h21.84v13.55H251.65v11.48h25.23V159H235.37Z"/><path d="M157.35,95.44a7.06,7.06,0,0,1,7.44,7.44v48.66a7.06,7.06,0,0,1-7.44,7.44H124.69a7.06,7.06,0,0,1-7.44-7.44V102.88a7.06,7.06,0,0,1,7.44-7.44Zm-8.94,14.78a1,1,0,0,0-1-1H134.48a1,1,0,0,0-.85,1v34.17a.91.91,0,0,0,.85.85h12.89a1,1,0,0,0,1-.85Z"/><polygon points="190.57 95.48 173.34 95.48 169.36 105.5 175.27 105.5 175.27 151.35 169.13 151.35 169.13 159.01 195.66 159.01 195.66 151.35 190.57 151.35 190.57 95.48"/><polygon points="209.3 95.44 209.3 130.45 195.62 105.25 195.62 134.09 208.83 158.97 224.36 158.97 224.36 95.44 209.3 95.44"/><rect x="25.83" y="95.44" width="74.93" height="5.09"/><rect x="25.83" y="153.88" width="75.26" height="5.09"/><path d="M374,111.85l1.26-.14a11.51,11.51,0,0,0,4.51,5.57l5.27,36.14,10.47-1.14-2.61-36.61a11.47,11.47,0,0,0,3-6.21l1.45-.16-.51-4.69-1.12.12a10.73,10.73,0,0,0-21.26,2.31l-1,.11Z"/><path d="M341.88,140.92h3.27v-12h3.27v27.3h-3.27V143.65h-3.27v12.56h-3.27v-27.3h3.27Z"/><path d="M360.85,150.2q0,6-4.91,6t-4.91-6V134.92q0-6,4.91-6t4.91,6Zm-3.27-17q0-1.57-1.63-1.57t-1.64,1.57v18.7q0,1.57,1.64,1.57t1.63-1.57Z"/><path d="M362.28,128.91h9.81v2.73h-3.27v24.57h-3.27V131.64h-3.27Z"/><path d="M409.75,133.21q0-1.57-1.39-1.57T407,133.21v3.72q0,1.77,3,5.12t3,5.77v2.39q0,6-4.66,6t-4.66-6v-3.38H407v5.08q0,1.57,1.39,1.57t1.39-1.57v-3.14q0-2.53-3-5.77t-3-6.35v-1.74q0-6,4.66-6t4.66,6v2.49h-3.27Z"/><path d="M418.66,153.48h5v2.73h-8.3v-27.3h8.3v2.73h-5v9.28h2.86v2.73h-2.86Z"/><path d="M424.75,156.21l4.33-27.3h3.31l4.33,27.3h-3.31l-.61-4.09h-4.17l-.57,4.09Zm4.33-7h3.27l-1.1-7.68-.53-4.85-.49,4.81Z"/><path d="M435.42,128.91h9.81v2.73H442v24.57H438.7V131.64h-3.27Z"/><polygon points="437.14 60.6 426.41 67.01 429.57 69.76 423.61 77.1 434.08 69.34 431.31 67.05 437.14 60.6"/><polygon points="336.06 60.6 346.8 67.01 343.63 69.76 349.6 77.1 339.13 69.34 341.89 67.05 336.06 60.6"/><polygon points="336.06 121.94 346.8 115.54 343.63 112.78 349.6 105.44 339.12 113.21 341.89 115.5 336.06 121.94"/><polygon points="437.14 121.94 426.4 115.54 429.57 112.78 423.61 105.44 434.08 113.21 431.31 115.5 437.14 121.94"/><path d="M402.32,33.48c.74,1.75,1.52,3.46,2.35,5.14A75.8,75.8,0,0,1,422.25,179.8s-.07.06-.11.09h0c-9,3.28-16,3.39-20.86.32-6-3.78-6.75-11.38-6.77-11.56,0,0,0,0,0,0l1.42-.15-.29-14.8-10.19,1.11,2.9,14.52,1.63-.18c.07.74,1.07,10,8.82,14.94a20,20,0,0,0,11,3,41.17,41.17,0,0,0,13.92-2.82,2.19,2.19,0,0,0,.41-.25,2.13,2.13,0,0,0,.27-.08,80.35,80.35,0,0,0-22-150.38Z"/><path d="M387.5,188.21A75.77,75.77,0,0,1,369.76,38.77q.72-2.61,1.62-5A80.34,80.34,0,0,0,387.5,192.78a2.29,2.29,0,1,0,0-4.57Z"/><path d="M374.54,122.93c-.48-.38-.7-.57-.94-.75a62.27,62.27,0,0,1-9.59-8.76c-8.46-9.64-12.17-20.78-10.35-33.56a54.52,54.52,0,0,1,9.64-23.74,4.86,4.86,0,0,1,.36-.4c.56,4.08,5.2,9.56,9.1,10.84-.18-1.48-.38-3-.54-4.45a55.33,55.33,0,0,1,.57-15.91,56.58,56.58,0,0,1,6.39-18.31c1.08-1.87,1.94-3.89,3.14-5.68q2.94-4.36,6.23-8.49c1.55-1.94,3.34-3.69,5-5.52A13.3,13.3,0,0,0,392.32,15a36.22,36.22,0,0,0,2,10.39,112.07,112.07,0,0,0,6.53,16c1.34,2.66,2.53,5.4,4,8,2.44,4.38,5.1,8.63,7.54,13A81.9,81.9,0,0,1,416.72,71a37.1,37.1,0,0,1,2.1,23.81,41.16,41.16,0,0,1-9.51,17.29,61.75,61.75,0,0,1-12.06,10.39c-.24.16-.46.34-.87.65l.19-.67c5-4.72,7.7-10.46,7.54-17.38a28.34,28.34,0,0,0-3.92-13.91c-3.75-6.38-7.34-12.85-9.64-19.92a26.91,26.91,0,0,1-1.19-5.37,24.67,24.67,0,0,1,.25-4.3c-8.66,9.11-13.39,19.69-11.45,32.65-2.06-.64-4.34-3.19-5.21-5.9-.21.26-.4.46-.56.69a30.34,30.34,0,0,0-5.26,15c-.4,6.7,2,12.39,6.43,17.35Z"/></svg>