<svg xmlns="http://www.w3.org/2000/svg" viewBox="0 0 301.98 139.81"><defs><style>.cls-hotseat-1{fill:#fff;}</style></defs><title>Asset 1</title><g id="Layer_2" data-name="Layer 2"><g id="Layer_1-2" data-name="Layer 1"><path class="cls-hotseat-1" d="M230.92,78.51l1-.1a8.72,8.72,0,0,0,3.42,4.22l4,27.38,7.93-.86-2-27.73a8.69,8.69,0,0,0,2.3-4.71l1.1-.12L248.25,73l-.85.09a8.13,8.13,0,0,0-16.11,1.75l-.76.08Z"/><path class="cls-hotseat-1" d="M206.55,100.53H209v-9.1h2.48v20.68H209V102.6h-2.48v9.51h-2.48V91.43h2.48Z"/><path class="cls-hotseat-1" d="M220.92,107.56q0,4.55-3.72,4.55t-3.72-4.55V96q0-4.55,3.72-4.55T220.92,96Zm-2.48-12.87q0-1.19-1.24-1.19T216,94.69v14.16q0,1.19,1.24,1.19t1.24-1.19Z"/><path class="cls-hotseat-1" d="M222,91.43h7.43V93.5H227v18.61h-2.48V93.5H222Z"/><path class="cls-hotseat-1" d="M258,94.69q0-1.19-1.05-1.19t-1.05,1.19V97.5q0,1.34,2.29,3.88t2.29,4.37v1.81q0,4.55-3.53,4.55t-3.53-4.55V105h2.48v3.85q0,1.19,1.05,1.19t1.05-1.19v-2.38q0-1.91-2.29-4.37a7.19,7.19,0,0,1-2.29-4.81V96q0-4.55,3.53-4.55T260.44,96v1.89H258Z"/><path class="cls-hotseat-1" d="M264.71,110h3.81v2.07h-6.29V91.43h6.29V93.5h-3.81v7h2.17v2.07h-2.17Z"/><path class="cls-hotseat-1" d="M269.33,112.11l3.28-20.68h2.51l3.28,20.68h-2.51l-.46-3.1h-3.16l-.43,3.1Zm3.28-5.32h2.48l-.84-5.81-.4-3.67-.37,3.64Z"/><path class="cls-hotseat-1" d="M277.41,91.43h7.43V93.5h-2.48v18.61h-2.48V93.5h-2.48Z"/><polygon class="cls-hotseat-1" points="278.71 39.69 270.58 44.54 272.98 46.63 268.46 52.19 276.39 46.3 274.3 44.57 278.71 39.69"/><polygon class="cls-hotseat-1" points="202.15 39.69 210.28 44.54 207.88 46.63 212.4 52.19 204.47 46.3 206.57 44.57 202.15 39.69"/><polygon class="cls-hotseat-1" points="202.15 86.15 210.28 81.3 207.88 79.21 212.4 73.65 204.47 79.53 206.57 81.27 202.15 86.15"/><polygon class="cls-hotseat-1" points="278.71 86.15 270.58 81.3 272.98 79.21 268.46 73.65 276.39 79.53 274.3 81.27 278.71 86.15"/><path class="cls-hotseat-1" d="M252.33,19.14c.56,1.33,1.15,2.62,1.78,3.89A57.41,57.41,0,0,1,267.43,130l-.09.07h0c-6.82,2.49-12.13,2.57-15.8.24-4.52-2.87-5.11-8.62-5.13-8.75v0l1.07-.12-.22-11.21-7.72.84,2.2,11,1.23-.13c.05.56.81,7.57,6.68,11.32a15.17,15.17,0,0,0,8.33,2.25,31.18,31.18,0,0,0,10.54-2.13,1.66,1.66,0,0,0,.31-.19,1.62,1.62,0,0,0,.2-.06A60.86,60.86,0,0,0,252.33,19.14Z"/><path class="cls-hotseat-1" d="M241.11,136.35a57.39,57.39,0,0,1-13.44-113.2q.55-2,1.23-3.82a60.85,60.85,0,0,0,12.21,120.47,1.73,1.73,0,1,0,0-3.46Z"/><path class="cls-hotseat-1" d="M231.29,86.9l-.71-.57a47.17,47.17,0,0,1-7.26-6.64c-6.41-7.3-9.22-15.74-7.84-25.42a41.29,41.29,0,0,1,7.3-18,3.68,3.68,0,0,1,.27-.3c.43,3.09,3.94,7.24,6.89,8.21-.14-1.12-.29-2.24-.41-3.37a41.91,41.91,0,0,1,.43-12,42.86,42.86,0,0,1,4.84-13.87c.82-1.42,1.47-2.95,2.38-4.3q2.23-3.3,4.72-6.43c1.17-1.47,2.53-2.79,3.81-4.18a10.07,10.07,0,0,0-1,5.17A27.43,27.43,0,0,0,246.3,13a84.89,84.89,0,0,0,4.95,12.15c1,2,1.91,4.09,3,6.06,1.85,3.32,3.86,6.54,5.71,9.85a62,62,0,0,1,3.27,6.49,28.1,28.1,0,0,1,1.59,18,31.17,31.17,0,0,1-7.21,13.1,46.78,46.78,0,0,1-9.14,7.87c-.18.12-.35.26-.66.49l.14-.51a17.1,17.1,0,0,0,5.71-13.16,21.47,21.47,0,0,0-3-10.54,77,77,0,0,1-7.3-15.09,20.38,20.38,0,0,1-.9-4.07,18.69,18.69,0,0,1,.19-3.26c-6.56,6.9-10.15,14.92-8.67,24.73a7.19,7.19,0,0,1-3.95-4.47c-.16.2-.31.35-.42.52a23,23,0,0,0-4,11.33,17.63,17.63,0,0,0,4.87,13.14Z"/><path class="cls-hotseat-1" d="M.83,27.94H8.53l6.27,10.18,6.28-10.18h7.7V54.25H21.53V39.14l-6.71,10.3h-.15L8,39.22v15H.83Z"/><path class="cls-hotseat-1" d="M42.54,27.76h7l11.2,26.49H53L51,49.55H40.89L39,54.25H31.34Zm6.39,16.16L46,36.44l-3,7.48Z"/><path class="cls-hotseat-1" d="M73.66,54.7a20.41,20.41,0,0,1-6.71-1.1,16.26,16.26,0,0,1-5.62-3.29l4.06-4.86a13.38,13.38,0,0,0,8.53,3.16,4.36,4.36,0,0,0,2.24-.47,1.48,1.48,0,0,0,.77-1.33v-.07a1.42,1.42,0,0,0-.19-.73,1.91,1.91,0,0,0-.69-.62,7.16,7.16,0,0,0-1.35-.58,22.53,22.53,0,0,0-2.2-.58q-2.1-.49-3.91-1.07a11.93,11.93,0,0,1-3.14-1.5A6.41,6.41,0,0,1,62.57,36V35.9a8.07,8.07,0,0,1,.7-3.38,7.47,7.47,0,0,1,2-2.66,9.57,9.57,0,0,1,3.21-1.74,13.57,13.57,0,0,1,4.25-.62,18.94,18.94,0,0,1,6,.89A15.23,15.23,0,0,1,83.58,31l-3.65,5.16a14.78,14.78,0,0,0-3.7-1.94,11.17,11.17,0,0,0-3.66-.66,3.3,3.3,0,0,0-2,.49,1.45,1.45,0,0,0-.66,1.2v.08a1.47,1.47,0,0,0,.21.79,1.89,1.89,0,0,0,.71.62,7.93,7.93,0,0,0,1.39.56q.88.28,2.24.58A32.19,32.19,0,0,1,78.56,39a12.2,12.2,0,0,1,3.1,1.59,6.4,6.4,0,0,1,2,2.27,6.93,6.93,0,0,1,.68,3.17v.08a8.11,8.11,0,0,1-.77,3.6,7.72,7.72,0,0,1-2.16,2.68A9.78,9.78,0,0,1,78,54.12,15.26,15.26,0,0,1,73.66,54.7Z"/><path class="cls-hotseat-1" d="M94.25,34.33H86.36V27.94h23.07v6.39h-7.89V54.25H94.25Z"/><path class="cls-hotseat-1" d="M112.62,27.94h21.12v6.2H119.8v4h12.63v5.75H119.8V48h14.13v6.2H112.62Z"/><path class="cls-hotseat-1" d="M137.69,27.94h12.44a15.43,15.43,0,0,1,5.15.75,8.82,8.82,0,0,1,3.42,2.11A8.12,8.12,0,0,1,161,36.92V37a8.28,8.28,0,0,1-1.46,5,9.27,9.27,0,0,1-3.95,3l6.27,9.17h-8.42l-5.3-8H145v8h-7.29Zm12.1,12.63a4.4,4.4,0,0,0,2.89-.85,2.8,2.8,0,0,0,1-2.27v-.07A2.72,2.72,0,0,0,152.65,35a4.82,4.82,0,0,0-2.9-.77H145v6.31Z"/><path class="cls-hotseat-1" d="M15.32,90a15.83,15.83,0,0,1-6.11-1.16,15.05,15.05,0,0,1-4.85-3.16A14.58,14.58,0,0,1,1.16,81,14.32,14.32,0,0,1,0,75.25v-.08A14.53,14.53,0,0,1,4.4,64.68,15.34,15.34,0,0,1,9.29,61.5a15.85,15.85,0,0,1,6.11-1.16,15.85,15.85,0,0,1,6.11,1.16,15.07,15.07,0,0,1,4.85,3.16,14.57,14.57,0,0,1,3.2,4.69,14.32,14.32,0,0,1,1.16,5.74v.08a14.54,14.54,0,0,1-4.4,10.49,15.36,15.36,0,0,1-4.89,3.18A15.83,15.83,0,0,1,15.32,90Zm.06-7.13a7.14,7.14,0,0,0,3-.61,6.86,6.86,0,0,0,2.29-1.65,7.69,7.69,0,0,0,1.47-2.42,8.12,8.12,0,0,0,.53-2.93v-.08a8.12,8.12,0,0,0-.53-2.93,7.54,7.54,0,0,0-1.51-2.45,7.46,7.46,0,0,0-2.33-1.69,7,7,0,0,0-3-.63,7,7,0,0,0-3,.61,7.12,7.12,0,0,0-3.76,4.07,8.44,8.44,0,0,0-.51,2.93v.08A8.12,8.12,0,0,0,8.6,78.1a7.71,7.71,0,0,0,1.49,2.44,7.18,7.18,0,0,0,2.31,1.69A6.93,6.93,0,0,0,15.38,82.87Z"/><path class="cls-hotseat-1" d="M34.84,60.91H57.65v6.93H42.74v4.81H56.23v6.6H42.74V89.43H34.84Z"/><path class="cls-hotseat-1" d="M86.94,90.07A15.93,15.93,0,0,1,80.8,88.9a15.11,15.11,0,0,1-4.87-3.17A14.64,14.64,0,0,1,72.72,81a14.4,14.4,0,0,1-1.17-5.77v-.08A14.6,14.6,0,0,1,76,64.63a15.43,15.43,0,0,1,4.91-3.19,16.74,16.74,0,0,1,12.28,0A15.14,15.14,0,0,1,98,64.61a14.66,14.66,0,0,1,3.21,4.71,14.4,14.4,0,0,1,1.17,5.77v.08A14.6,14.6,0,0,1,98,85.71a15.43,15.43,0,0,1-4.91,3.19A15.93,15.93,0,0,1,86.94,90.07ZM87,82.9a7.18,7.18,0,0,0,3-.61,6.89,6.89,0,0,0,2.3-1.66,7.7,7.7,0,0,0,1.48-2.44,8.16,8.16,0,0,0,.53-2.95v-.08a8.17,8.17,0,0,0-.53-2.95,7.58,7.58,0,0,0-1.52-2.46,7.48,7.48,0,0,0-2.34-1.7,7.46,7.46,0,0,0-6,0,7.14,7.14,0,0,0-3.78,4.09,8.45,8.45,0,0,0-.51,2.95v.08a8.16,8.16,0,0,0,.53,2.95,7.74,7.74,0,0,0,1.5,2.46A7.22,7.22,0,0,0,84,82.27,7,7,0,0,0,87,82.9Z"/><path class="cls-hotseat-1" d="M138.68,60.84h23v6.75H146.5v4.34h13.75V78.2H146.5v4.54h15.39V89.5H138.68Z"/><polygon class="cls-hotseat-1" points="114.37 60.84 106.55 60.84 103.41 65.96 106.55 65.96 106.55 85.58 103.41 85.58 103.41 89.5 116.97 89.5 116.97 85.58 114.37 85.58 114.37 60.84"/><polygon class="cls-hotseat-1" points="125.79 60.84 125.79 75.99 116.97 64.29 116.97 77.11 126.63 89.5 133.61 89.5 133.61 60.84 125.79 60.84"/><path class="cls-hotseat-1" d="M18.13,101.59H24.5a9.06,9.06,0,0,1,2.65.36A6.14,6.14,0,0,1,29.21,103a4.79,4.79,0,0,1,1.34,1.68A5.2,5.2,0,0,1,31,107v0a5,5,0,0,1-2,4.19,6.62,6.62,0,0,1-2.18,1.05,9.58,9.58,0,0,1-2.62.35H19.43v6.55H18.13Zm6.12,9.84a7.72,7.72,0,0,0,2.23-.3,5.11,5.11,0,0,0,1.72-.87,3.94,3.94,0,0,0,1.52-3.17V107a4.17,4.17,0,0,0-.39-1.85,3.62,3.62,0,0,0-1.09-1.33,5,5,0,0,0-1.68-.81,7.91,7.91,0,0,0-2.16-.28h-5v8.66Z"/><path class="cls-hotseat-1" d="M42.92,119.46a8.54,8.54,0,0,1-6.4-2.72,8.79,8.79,0,0,1-1.78-2.87,9.48,9.48,0,0,1-.63-3.44v-.05a9.44,9.44,0,0,1,.64-3.45,9.15,9.15,0,0,1,1.79-2.9,8.51,8.51,0,0,1,2.79-2,9.25,9.25,0,0,1,7.25,0,8.61,8.61,0,0,1,2.78,2,8.82,8.82,0,0,1,1.78,2.87,9.53,9.53,0,0,1,.63,3.44,0,0,0,0,1,0,.05,9.43,9.43,0,0,1-.64,3.45,9.12,9.12,0,0,1-1.79,2.9,8.47,8.47,0,0,1-2.8,2A8.74,8.74,0,0,1,42.92,119.46Zm.05-1.18a7.19,7.19,0,0,0,5.36-2.3,7.7,7.7,0,0,0,1.54-2.5,8.44,8.44,0,0,0,.55-3.06v-.05a8.35,8.35,0,0,0-.57-3.07,7.87,7.87,0,0,0-1.56-2.51,7.37,7.37,0,0,0-2.37-1.69,7.33,7.33,0,0,0-8.37,1.67,7.72,7.72,0,0,0-1.54,2.5,8.44,8.44,0,0,0-.55,3.06v.05a8.34,8.34,0,0,0,.56,3.07A7.86,7.86,0,0,0,37.59,116,7.36,7.36,0,0,0,40,117.65,7.21,7.21,0,0,0,43,118.28Z"/><path class="cls-hotseat-1" d="M56.22,101.59h5.85a10.4,10.4,0,0,1,3.78.67,8.92,8.92,0,0,1,3,1.84,8.21,8.21,0,0,1,1.92,2.77,8.74,8.74,0,0,1,.68,3.45v.05a8.84,8.84,0,0,1-.68,3.46,8.17,8.17,0,0,1-1.92,2.79,9.09,9.09,0,0,1-3,1.86,10.22,10.22,0,0,1-3.78.68H56.22ZM62.07,118a8.86,8.86,0,0,0,3.31-.59,7.44,7.44,0,0,0,2.51-1.61,7.21,7.21,0,0,0,1.59-2.39,7.69,7.69,0,0,0,.56-3v-.05a7.71,7.71,0,0,0-.56-2.95A7.31,7.31,0,0,0,67.89,105a7.48,7.48,0,0,0-2.51-1.64,8.68,8.68,0,0,0-3.31-.6H57.53V118Z"/><path class="cls-hotseat-1" d="M83.8,119.46a8.57,8.57,0,0,1-6.26-2.62A8.71,8.71,0,0,1,75.72,114a9.56,9.56,0,0,1-.65-3.54v-.05a9.31,9.31,0,0,1,.67-3.51,9.21,9.21,0,0,1,1.83-2.9,8.49,8.49,0,0,1,6.29-2.67,10.38,10.38,0,0,1,2.13.2,8.29,8.29,0,0,1,1.77.58,9.34,9.34,0,0,1,1.53.89,14.66,14.66,0,0,1,1.39,1.14l-.93,1a13.93,13.93,0,0,0-1.2-1,7.6,7.6,0,0,0-1.34-.82,8,8,0,0,0-1.56-.54,7.83,7.83,0,0,0-1.82-.2,7.12,7.12,0,0,0-5.28,2.27,7.89,7.89,0,0,0-1.56,2.5,8.31,8.31,0,0,0-.56,3.09v.05a8.27,8.27,0,0,0,.58,3.1A8,8,0,0,0,78.57,116a7.25,7.25,0,0,0,2.35,1.68,7,7,0,0,0,2.94.61,7.32,7.32,0,0,0,3.31-.7,10.62,10.62,0,0,0,2.74-2l.88.85a16.36,16.36,0,0,1-1.44,1.24,8.93,8.93,0,0,1-1.58,1,8.8,8.8,0,0,1-1.82.63A9.48,9.48,0,0,1,83.8,119.46Z"/><path class="cls-hotseat-1" d="M101,101.46h1.26l8.18,17.69H109l-2.23-4.92H96.45l-2.23,4.92H92.86Zm5.22,11.59-4.62-10.16L97,113.06Z"/><path class="cls-hotseat-1" d="M120.13,119.41a9.85,9.85,0,0,1-3.8-.7,11.71,11.71,0,0,1-3.28-2.11l.85-1a12.53,12.53,0,0,0,1.44,1.17,8,8,0,0,0,3.05,1.28,9.31,9.31,0,0,0,1.81.16A5.92,5.92,0,0,0,122,118a4.27,4.27,0,0,0,1.4-.73,3.36,3.36,0,0,0,.9-1.1,3,3,0,0,0,.33-1.39v0a3.44,3.44,0,0,0-.21-1.25,2.41,2.41,0,0,0-.78-1,5.67,5.67,0,0,0-1.52-.82,15.77,15.77,0,0,0-2.46-.66,17.05,17.05,0,0,1-2.71-.77,6.68,6.68,0,0,1-1.84-1,3.52,3.52,0,0,1-1-1.37,4.58,4.58,0,0,1-.33-1.78v0a4,4,0,0,1,.43-1.82,4.63,4.63,0,0,1,1.18-1.47,5.55,5.55,0,0,1,1.78-1,6.94,6.94,0,0,1,2.26-.35,9.32,9.32,0,0,1,3.3.53,9.91,9.91,0,0,1,2.72,1.61l-.83,1a7.54,7.54,0,0,0-5.24-2,5.57,5.57,0,0,0-1.77.26,4.35,4.35,0,0,0-1.36.72,3.17,3.17,0,0,0-.87,1.05,2.83,2.83,0,0,0-.3,1.28v0a3.54,3.54,0,0,0,.21,1.27,2.47,2.47,0,0,0,.78,1,5.53,5.53,0,0,0,1.57.84,17.93,17.93,0,0,0,2.56.7,10.11,10.11,0,0,1,4.42,1.77,3.82,3.82,0,0,1,1.36,3.07v0a4.34,4.34,0,0,1-.44,1.94,4.55,4.55,0,0,1-1.2,1.52,5.65,5.65,0,0,1-1.83,1A7.48,7.48,0,0,1,120.13,119.41Z"/><path class="cls-hotseat-1" d="M135.12,102.77H129v-1.18h13.55v1.18h-6.12v16.39h-1.3Z"/><path class="cls-hotseat-1" d="M159.1,97.16v26.19H3.93V97.16H159.1m2.59-2.59H1.34v31.37H161.69V94.58Z"/></g></g></svg>